<svg width="87" height="76" viewBox="0 0 87 76" fill="none" xmlns="http://www.w3.org/2000/svg">
<g id="Group 385">
<path id="Vector" d="M76.7073 25.3357C75.8937 25.3357 75.2302 24.7985 75.2302 24.1351V3.28247H78.1843V24.1272C78.1843 24.7906 77.5209 25.3278 76.7073 25.3278V25.3357Z" fill="#CDE755"/>
<path id="Vector_2" d="M80.8068 0.865479H5.78493C4.22888 0.865479 2.96509 2.12927 2.96509 3.68532V4.08815C2.96509 5.6442 4.22888 6.90799 5.78493 6.90799H18.8968C20.4528 6.90799 21.7166 8.17178 21.7166 9.72783V18.1952C21.7166 19.7513 22.9804 21.0151 24.5364 21.0151H62.8531C64.4091 21.0151 65.6729 19.7513 65.6729 18.1952V9.72783C65.6729 8.17178 66.9367 6.90799 68.5006 6.90799H80.7989C82.355 6.90799 83.6188 5.6442 83.6188 4.08815V3.68532C83.6188 2.12927 82.355 0.865479 80.7989 0.865479L80.8068 0.865479Z" fill="#CDE755"/>
<path id="Vector_3" d="M24.1415 26.0703H62.4581C64.0141 26.0703 65.2779 27.3341 65.2779 28.8901V33.7321C65.2779 45.8645 55.4282 55.7142 43.2958 55.7142C31.1634 55.7142 21.3137 45.8645 21.3137 33.7321V28.8901C21.3137 27.3341 22.5775 26.0703 24.1336 26.0703H24.1415Z" fill="#CDE755"/>
<path id="Vector_4" d="M77.45 27.2314L78.0503 28.4478C78.1451 28.6373 78.3267 28.7716 78.54 28.8032L79.8749 29.0007C80.4041 29.0797 80.6174 29.7273 80.2303 30.0986L79.2588 31.0464C79.1087 31.1965 79.0376 31.4098 79.0692 31.6151L79.2983 32.95C79.3852 33.4792 78.8323 33.8821 78.3583 33.6293L77.1577 32.9974C76.9682 32.8947 76.747 32.8947 76.5574 32.9974L75.3568 33.6293C74.8829 33.8821 74.33 33.4792 74.4169 32.95L74.6459 31.6151C74.6854 31.4019 74.6144 31.1886 74.4564 31.0464L73.4848 30.0986C73.0978 29.7273 73.3111 29.0718 73.8403 29.0007L75.1752 28.8032C75.3884 28.7716 75.5701 28.6373 75.6649 28.4478L76.2652 27.2314C76.5021 26.7495 77.1893 26.7495 77.4263 27.2314H77.45Z" fill="#D99F25"/>
<path id="Vector_5" d="M82.6472 49.3872C66.3916 52.7758 53.8643 61.7724 43.2958 74.8132C32.7274 61.7724 20.2 52.7758 3.94447 49.3872C1.27471 48.8343 0.326867 49.3319 0.334766 52.3256C0.366361 59.8451 0.216285 59.7503 7.54628 60.3585C20.8398 61.3617 32.3403 67.6332 42.7113 75.6346C42.7666 75.6741 42.8772 75.6504 43.3116 75.6109C43.7224 75.6504 43.825 75.6662 43.8882 75.6267C54.2592 67.6253 65.7597 61.3617 79.0533 60.3506C86.3833 59.7345 86.2332 59.8293 86.2648 52.3177C86.2806 49.324 85.3327 48.8343 82.6551 49.3872H82.6472Z" fill="#2C2C31"/>
</g>
</svg>
