<svg width="52" height="50" viewBox="0 0 52 50" fill="none" xmlns="http://www.w3.org/2000/svg">
<path d="M10.216 45.2473C11.0062 45.0802 15.8211 45.0802 16.6113 45.2473C17.2868 45.4033 18.0173 45.7679 18.0173 46.5639C17.978 47.3217 17.5334 47.9935 16.9192 48.4201C16.1227 49.041 15.188 49.4342 14.2109 49.5759C13.6705 49.6459 13.1395 49.6475 12.618 49.5759C11.6393 49.4342 10.7046 49.041 9.90966 48.4185C9.29385 47.9935 8.84927 47.3217 8.81 46.5639C8.81 45.7679 9.54049 45.4033 10.216 45.2473ZM13.507 18.0161C16.7949 18.0161 20.1536 19.5762 22.1487 22.1648C23.4432 23.8316 24.037 25.4968 24.037 28.0853V28.7587C24.037 30.7439 24.5617 31.914 25.7163 33.2624C26.5913 34.2558 26.871 35.5309 26.871 36.9143C26.871 38.2962 26.417 39.6079 25.5074 40.673C24.3166 41.9497 22.6373 42.7648 20.9234 42.9065C18.4397 43.1182 15.9545 43.2965 13.4363 43.2965C10.9165 43.2965 8.43282 43.1899 5.94916 42.9065C4.23369 42.7648 2.55435 41.9497 1.36515 40.673C0.455573 39.6079 0 38.2962 0 36.9143C0 35.5309 0.281199 34.2558 1.15464 33.2624C2.34542 31.914 2.83555 30.7439 2.83555 28.7587V28.0853C2.83555 25.4267 3.49849 23.6883 4.86364 21.9865C6.89329 19.5046 10.1467 18.0161 13.3656 18.0161H13.507Z" fill="#28282E"/>
<circle cx="33.9839" cy="18.0161" r="16.2016" fill="#F54068" stroke="#C3E845" stroke-width="2.37097"/>
<path d="M30.9428 23.2209V21.4439C31.6919 21.9486 32.4516 22.2009 33.2219 22.2009C33.9976 22.2009 34.6218 22.0043 35.0946 21.6112C35.5674 21.2128 35.8038 20.6842 35.8038 20.0254C35.8038 19.3773 35.5621 18.8726 35.0787 18.5113C34.6005 18.1501 33.9126 17.9695 33.0147 17.9695C32.7066 17.9695 32.0824 18.0013 31.1421 18.0651L31.5485 12.0566H37.1745V13.6344H33.0865L32.8952 16.4952C33.2618 16.474 33.5938 16.4633 33.8913 16.4633C35.1026 16.4633 36.0376 16.7741 36.6963 17.3957C37.3604 18.0173 37.6924 18.8673 37.6924 19.9457C37.6924 21.0773 37.3126 21.9857 36.5529 22.6711C35.7985 23.3511 34.7599 23.6911 33.4371 23.6911C32.3215 23.6911 31.49 23.5344 30.9428 23.2209Z" fill="#F54068"/>
</svg>
