<svg width="41" height="41" viewBox="0 0 41 41" fill="none" xmlns="http://www.w3.org/2000/svg">
<g id="Group">
<g id="Group_2">
<g id="Group 379">
<rect id="Rectangle 1092" x="0.5" y="0.939514" width="40.0231" height="40.0231" rx="20.0115" fill="#E9E9E9"/>
<path id="Vector" d="M29.302 20.3568H28.7496V18.4677C28.7496 17.1717 27.6891 16.0953 26.3634 16.0953H20.7955V14.1403C21.613 13.8328 22.1875 13.042 22.1875 12.1194C22.1875 10.9112 21.2153 9.9447 20.0001 9.9447C18.7849 9.9447 17.8128 10.9112 17.8128 12.1194C17.8128 13.042 18.3872 13.8108 19.2047 14.1403V16.0953H13.6147C12.3112 16.0953 11.2285 17.1497 11.2285 18.4677V20.3568H10.6982C10.0354 20.3568 9.50513 20.884 9.50513 21.543V24.3328C9.50513 24.9918 10.0354 25.519 10.6982 25.519H11.2506V27.5838C11.2506 28.8799 12.3112 29.9562 13.6368 29.9562H26.3855C27.6891 29.9562 28.7717 28.9018 28.7717 27.5838V25.519H29.3241C29.987 25.519 30.5172 24.9918 30.5172 24.3328V21.543C30.4951 20.906 29.9649 20.3568 29.302 20.3568ZM14.8741 21.2575C14.8741 20.269 15.6696 19.4782 16.6638 19.4782C17.6581 19.4782 18.4535 20.269 18.4535 21.2575C18.4535 22.246 17.6581 23.0368 16.6638 23.0368C15.6696 23.0368 14.8741 22.246 14.8741 21.2575ZM21.7456 26.837H18.2546C17.8128 26.837 17.4592 26.4855 17.4592 26.0462C17.4592 25.6069 17.8128 25.2554 18.2546 25.2554H21.7235C22.1654 25.2554 22.5189 25.6069 22.5189 26.0462C22.541 26.4855 22.1654 26.837 21.7456 26.837ZM23.3364 23.0368C22.3422 23.0368 21.5468 22.246 21.5468 21.2575C21.5468 20.269 22.3422 19.4782 23.3364 19.4782C24.3307 19.4782 25.1261 20.269 25.1261 21.2575C25.1261 22.246 24.3307 23.0368 23.3364 23.0368Z" fill="#BBBBBB"/>
</g>
</g>
</g>
</svg>
